<?xml version="1.0" standalone="no"?>
<!DOCTYPE svg PUBLIC "-//W3C//DTD SVG 20010904//EN"
 "http://www.w3.org/TR/2001/REC-SVG-20010904/DTD/svg10.dtd">
<svg version="1.0" xmlns="http://www.w3.org/2000/svg"
 width="512.000000pt" height="512.000000pt" viewBox="0 0 512.000000 512.000000"
 preserveAspectRatio="xMidYMid meet">

<g transform="translate(0.000000,512.000000) scale(0.100000,-0.100000)"
fill="#000000" stroke="none">
<path d="M915 4799 c-112 -15 -212 -46 -330 -103 -208 -102 -369 -263 -470
-471 -64 -130 -90 -220 -106 -361 -34 -304 79 -621 302 -843 162 -163 381
-271 604 -300 51 -6 -22 -9 -272 -10 l-343 -1 0 -1200 0 -1200 1800 0 1800 0
0 300 0 300 227 0 226 0 384 -195 383 -195 0 990 0 990 -383 -195 -384 -195
-226 0 -227 0 0 300 0 300 -252 1 c-167 1 -236 4 -205 9 342 58 619 305 723
645 25 81 28 105 28 245 0 140 -3 164 -28 245 -93 306 -318 530 -621 621 -84
24 -108 27 -380 34 -159 5 -324 12 -365 15 -547 44 -873 95 -1315 205 -320 80
-402 90 -570 69z m1191 -494 c179 -29 350 -52 469 -63 l80 -7 -36 -40 c-82
-92 -145 -208 -186 -342 -24 -79 -27 -103 -27 -243 0 -140 3 -164 28 -245 104
-340 381 -587 723 -645 26 -4 -422 -8 -997 -8 -656 0 -1019 4 -975 9 224 29
441 136 604 300 331 331 403 838 175 1241 -19 33 -34 62 -34 64 0 6 7 5 176
-21z m894 -2795 l0 -600 -900 0 -900 0 0 600 0 600 900 0 900 0 0 -600z"/>
</g>
</svg>
